REM DIRINDEX 1\2,1\3,1\4,1\5,1\6
REM DIRNAME folder01,folder02,folder03,folder04,folder05,folder06
TITLE ""
FILE "Disc4Track46.mp3" MP3
  TRACK 01 AUDIO
    TITLE "3:cjc030_07373"
    INDEX 01 00:00:00
  TRACK 02 AUDIO
    TITLE "0:"
    INDEX 01 00:00:74
  TRACK 03 AUDIO
    TITLE "4:cjc030_07374"
    INDEX 01 00:01:09
  TRACK 04 AUDIO
    TITLE "0:"
    INDEX 01 00:03:21
  TRACK 05 AUDIO
    TITLE "5:cjc030_07375"
    INDEX 01 00:03:31
  TRACK 06 AUDIO
    TITLE "0:"
    INDEX 01 00:04:33
  TRACK 07 AUDIO
    TITLE "6:cjc030_07376"
    INDEX 01 00:04:46
  TRACK 08 AUDIO
    TITLE "0:"
    INDEX 01 00:09:55
  TRACK 09 AUDIO
    TITLE "3:cjc030_07377"
    INDEX 01 00:10:27
  TRACK 10 AUDIO
    TITLE "0:"
    INDEX 01 00:11:39
  TRACK 11 AUDIO
    TITLE "4:cjc030_07378"
    INDEX 01 00:11:46
  TRACK 12 AUDIO
    TITLE "0:"
    INDEX 01 00:12:34
  TRACK 13 AUDIO
    TITLE "5:cjc030_07379"
    INDEX 01 00:12:42
  TRACK 14 AUDIO
    TITLE "0:"
    INDEX 01 00:13:51
  TRACK 15 AUDIO
    TITLE "6:cjc030_07380"
    INDEX 01 00:13:63
  TRACK 16 AUDIO
    TITLE "0:"
    INDEX 01 00:18:74
  TRACK 17 AUDIO
    TITLE "3:cjc030_07381"
    INDEX 01 00:19:48
  TRACK 18 AUDIO
    TITLE "0:"
    INDEX 01 00:20:65
  TRACK 19 AUDIO
    TITLE "4:cjc030_07382"
    INDEX 01 00:20:73
  TRACK 20 AUDIO
    TITLE "0:"
    INDEX 01 00:22:03
  TRACK 21 AUDIO
    TITLE "5:cjc030_07383"
    INDEX 01 00:22:11
  TRACK 22 AUDIO
    TITLE "0:"
    INDEX 01 00:23:28
  TRACK 23 AUDIO
    TITLE "6:cjc030_07384"
    INDEX 01 00:23:44
  TRACK 24 AUDIO
    TITLE "0:"
    INDEX 01 00:27:61
  TRACK 25 AUDIO
    TITLE "3:cjc030_07385"
    INDEX 01 00:28:35
  TRACK 26 AUDIO
    TITLE "0:"
    INDEX 01 00:29:52
  TRACK 27 AUDIO
    TITLE "4:cjc030_07386"
    INDEX 01 00:29:58
  TRACK 28 AUDIO
    TITLE "0:"
    INDEX 01 00:30:71
  TRACK 29 AUDIO
    TITLE "5:cjc030_07387"
    INDEX 01 00:31:08
  TRACK 30 AUDIO
    TITLE "0:"
    INDEX 01 00:32:21
  TRACK 31 AUDIO
    TITLE "3:cjc030_07388"
    INDEX 01 00:32:74
  TRACK 32 AUDIO
    TITLE "0:"
    INDEX 01 00:34:00
  TRACK 33 AUDIO
    TITLE "4:cjc030_07389"
    INDEX 01 00:34:10
  TRACK 34 AUDIO
    TITLE "0:"
    INDEX 01 00:35:08
  TRACK 35 AUDIO
    TITLE "5:cjc030_07390"
    INDEX 01 00:35:17
  TRACK 36 AUDIO
    TITLE "0:"
    INDEX 01 00:36:15
  TRACK 37 AUDIO
    TITLE "6:cjc030_07391"
    INDEX 01 00:36:29
  TRACK 38 AUDIO
    TITLE "0:"
    INDEX 01 00:42:23
  TRACK 39 AUDIO
    TITLE "3:cjc030_07392"
    INDEX 01 00:42:72
  TRACK 40 AUDIO
    TITLE "0:"
    INDEX 01 00:44:18
  TRACK 41 AUDIO
    TITLE "4:cjc030_07393"
    INDEX 01 00:44:28
  TRACK 42 AUDIO
    TITLE "0:"
    INDEX 01 00:45:69
  TRACK 43 AUDIO
    TITLE "5:cjc030_07394"
    INDEX 01 00:46:06
  TRACK 44 AUDIO
    TITLE "0:"
    INDEX 01 00:47:23
  TRACK 45 AUDIO
    TITLE "3:cjc030_07395"
    INDEX 01 00:48:04
  TRACK 46 AUDIO
    TITLE "0:"
    INDEX 01 00:49:12
  TRACK 47 AUDIO
    TITLE "4:cjc030_07396"
    INDEX 01 00:49:21
  TRACK 48 AUDIO
    TITLE "0:"
    INDEX 01 00:52:08
  TRACK 49 AUDIO
    TITLE "5:cjc030_07397"
    INDEX 01 00:52:14
  TRACK 50 AUDIO
    TITLE "0:"
    INDEX 01 00:53:23
  TRACK 51 AUDIO
    TITLE "6:cjc030_07398"
    INDEX 01 00:53:37
  TRACK 52 AUDIO
    TITLE "0:"
    INDEX 01 00:58:07
  TRACK 53 AUDIO
    TITLE "3:cjc030_07399"
    INDEX 01 00:58:56
  TRACK 54 AUDIO
    TITLE "0:"
    INDEX 01 00:59:67
  TRACK 55 AUDIO
    TITLE "4:cjc030_07400"
    INDEX 01 00:59:73
  TRACK 56 AUDIO
    TITLE "0:"
    INDEX 01 01:01:48
  TRACK 57 AUDIO
    TITLE "5:cjc030_07401"
    INDEX 01 01:01:56
  TRACK 58 AUDIO
    TITLE "0:"
    INDEX 01 01:02:67
  TRACK 59 AUDIO
    TITLE "6:cjc030_07402"
    INDEX 01 01:03:04
  TRACK 60 AUDIO
    TITLE "0:"
    INDEX 01 01:08:62
  TRACK 61 AUDIO
    TITLE "3:cjc030_07403"
    INDEX 01 01:09:36
  TRACK 62 AUDIO
    TITLE "0:"
    INDEX 01 01:10:37
  TRACK 63 AUDIO
    TITLE "4:cjc030_07404"
    INDEX 01 01:10:45
  TRACK 64 AUDIO
    TITLE "0:"
    INDEX 01 01:12:40
  TRACK 65 AUDIO
    TITLE "5:cjc030_07405"
    INDEX 01 01:12:48
  TRACK 66 AUDIO
    TITLE "0:"
    INDEX 01 01:13:51
  TRACK 67 AUDIO
    TITLE "3:cjc030_07406"
    INDEX 01 01:14:29
  TRACK 68 AUDIO
    TITLE "0:"
    INDEX 01 01:16:48
  TRACK 69 AUDIO
    TITLE "4:cjc030_07407"
    INDEX 01 01:16:56
  TRACK 70 AUDIO
    TITLE "0:"
    INDEX 01 01:21:00
  TRACK 71 AUDIO
    TITLE "5:cjc030_07408"
    INDEX 01 01:21:08
  TRACK 72 AUDIO
    TITLE "0:"
    INDEX 01 01:23:26
  TRACK 73 AUDIO
    TITLE "6:cjc030_07409"
    INDEX 01 01:23:38
  TRACK 74 AUDIO
    TITLE "0:"
    INDEX 01 01:26:23
  TRACK 75 AUDIO
    TITLE "3:cjc030_07410"
    INDEX 01 01:26:74
  TRACK 76 AUDIO
    TITLE "0:"
    INDEX 01 01:27:73
  TRACK 77 AUDIO
    TITLE "4:cjc030_07411"
    INDEX 01 01:28:06
  TRACK 78 AUDIO
    TITLE "0:"
    INDEX 01 01:31:08
  TRACK 79 AUDIO
    TITLE "5:cjc030_07412"
    INDEX 01 01:31:16
  TRACK 80 AUDIO
    TITLE "0:"
    INDEX 01 01:32:19
  TRACK 81 AUDIO
    TITLE "6:cjc030_07413"
    INDEX 01 01:32:29
  TRACK 82 AUDIO
    TITLE "0:"
    INDEX 01 01:33:70
  TRACK 83 AUDIO
    TITLE "3:cjc030_07414"
    INDEX 01 01:34:46
  TRACK 84 AUDIO
    TITLE "0:"
    INDEX 01 01:35:51
  TRACK 85 AUDIO
    TITLE "4:cjc030_07415"
    INDEX 01 01:35:59
  TRACK 86 AUDIO
    TITLE "0:"
    INDEX 01 01:37:62
  TRACK 87 AUDIO
    TITLE "5:cjc030_07416"
    INDEX 01 01:37:69
  TRACK 88 AUDIO
    TITLE "0:"
    INDEX 01 01:39:02
  TRACK 89 AUDIO
    TITLE "6:cjc030_07417"
    INDEX 01 01:39:15
  TRACK 90 AUDIO
    TITLE "0:"
    INDEX 01 01:41:50
